<?xml version="1.0" encoding="utf-8"?>
<?xml-stylesheet type="text/xsl" href="rss1.xsl"?>
<rss version="2.0" xmlns:atom="http://www.w3.org/2005/Atom" xmlns:content="http://purl.org/rss/1.0/modules/content/" xmlns:dc="http://purl.org/dc/elements/1.1/" xmlns:media="http://search.yahoo.com/mrss/">
<channel>
 <title>Getty</title>
 <link>http://www.gettyimg.com/</link>
 <atom:link href="http://www.gettyimg.com/" rel="self" type="application/rss+xml" />

 
                <item>
                <title><![CDATA[【SD】DVD - Belinda - Ni Freud Ni Tu Mama (Director's Cut Alternate Audio) (Clean DVD VOB)]]></title>
                <link><![CDATA[https://sharemania.us/threads/belinda-ni-freud-ni-tu-mama-directors-cut-alternate-audio-clean-dvd-vob.222945/]]></link>
                <description><![CDATA[<article>
<blockquote class="messageText SelectQuoteContainer ugc baseHtml">
<div style="text-align: center"><i><b><span style="color: #330066"><img src="https://i.postimg.cc/G2Tfh5s3/01.jpg" class="bbCodeImage LbImage" alt="[​IMG]" data-url="https://i.postimg.cc/G2Tfh5s3/01.jpg" style=""><br>
</span><br>
<span style="font-size: 26px"><span style="color: #330066"><span style="text-decoration: underline">Belinda - Ni Freud Ni Tu Mama </span><br>
<span style="text-decoration: underline">(Director's Cut Alternate Audio)</span></span></span><br>
<span style="color: #330066"><br>
<div class="bbCodeBlock bbCodeVfcHH HiddenContent">
<div class="attribution type">Hidden Content:</div>
<blockquote>You must either reply or click 'Like' to see the hidden information contained here.</blockquote>
</div></span></b></i><br>
​</div>
<div class="messageTextEndMarker">&nbsp;</div>
</blockquote>
</article>]]></description>
                <author><![CDATA[Synthwave_Evans]]></author>
                </item>

                
                <item>
                <title><![CDATA[【HD Live Performances】FEED - Anne-Marie - Live @ Isle Of Wight 2023 FEED HDTV H264 422 1080i MP2-ilya2129]]></title>
                <link><![CDATA[https://sharemania.us/threads/anne-marie-live-isle-of-wight-2023-feed-hdtv-h264-422-1080i-mp2-ilya2129.222944/]]></link>
                <description><![CDATA[<article>
<blockquote class="messageText SelectQuoteContainer ugc baseHtml">
<div style="text-align: center"><img src="https://i122.fastpic.org/big/2023/0619/86/0675ed79593c1d3e7bfa5387932c9b86.png?r=1" class="bbCodeImage LbImage" alt="[​IMG]" data-url="https://i122.fastpic.org/big/2023/0619/86/0675ed79593c1d3e7bfa5387932c9b86.png?r=1" style=""><br>
<br>
<a href="https://postimg.cc/hhbp0zfH" target="_blank" class="externalLink" rel="nofollow"><img src="https://i.postimg.cc/hhbp0zfH/vlcsnap-2023-06-19-12h59m03s941.png" class="bbCodeImage LbImage" alt="[​IMG]" data-url="https://i.postimg.cc/hhbp0zfH/vlcsnap-2023-06-19-12h59m03s941.png"></a> <a href="https://postimg.cc/wtmkR3C4" target="_blank" class="externalLink" rel="nofollow"><img src="https://i.postimg.cc/wtmkR3C4/vlcsnap-2023-06-19-12h59m05s899.png" class="bbCodeImage LbImage" alt="[​IMG]" data-url="https://i.postimg.cc/wtmkR3C4/vlcsnap-2023-06-19-12h59m05s899.png"></a> <a href="https://postimg.cc/gLYy7sn1" target="_blank" class="externalLink" rel="nofollow"><img src="https://i.postimg.cc/gLYy7sn1/vlcsnap-2023-06-19-12h59m07s906.png" class="bbCodeImage LbImage" alt="[​IMG]" data-url="https://i.postimg.cc/gLYy7sn1/vlcsnap-2023-06-19-12h59m07s906.png"></a> <a href="https://postimg.cc/KkhDPxFG" target="_blank" class="externalLink" rel="nofollow"><img src="https://i.postimg.cc/KkhDPxFG/vlcsnap-2023-06-19-12h59m09s786.png" class="bbCodeImage LbImage" alt="[​IMG]" data-url="https://i.postimg.cc/KkhDPxFG/vlcsnap-2023-06-19-12h59m09s786.png"></a> <a href="https://postimg.cc/mhwyHvn4" target="_blank" class="externalLink" rel="nofollow"><img src="https://i.postimg.cc/mhwyHvn4/vlcsnap-2023-06-19-12h59m11s807.png" class="bbCodeImage LbImage" alt="[​IMG]" data-url="https://i.postimg.cc/mhwyHvn4/vlcsnap-2023-06-19-12h59m11s807.png"></a> <a href="https://postimg.cc/z35k3z0p" target="_blank" class="externalLink" rel="nofollow"><img src="https://i.postimg.cc/z35k3z0p/vlcsnap-2023-06-19-12h59m13s567.png" class="bbCodeImage LbImage" alt="[​IMG]" data-url="https://i.postimg.cc/z35k3z0p/vlcsnap-2023-06-19-12h59m13s567.png"></a> <br>
<br>
​</div><br>
<div class="bbCodeBlock bbCodeCode">
<div class="type">Code:</div>
<pre>General
ID                                       : 1 (0x1)
Complete name                            : D:\Anne-Marie - Live @ Isle Of Wight 2023 FEED HDTV H264 422 1080i MP2-ilya2129.ts
Format                                   : MPEG-TS
File size                                : 6.15 GiB
Duration                                 : 29 min 20 s
Overall bit rate mode                    : Variable
Overall bit rate                         : 30.0 Mb/s
Frame rate                               : 25.000 FPS

Video
ID                                       : 512 (0x200)
Menu ID                                  : 1 (0x1)
Format                                   : AVC
Format/Info                              : Advanced Video Codec
Format profile                           : High 4:2:2@L4
Format settings                          : CABAC / 3 Ref Frames
Format settings, CABAC                   : Yes
Format settings, Reference frames        : 3 frames
Codec ID                                 : 27
Duration                                 : 29 min 20 s
Bit rate mode                            : Constant
Bit rate                                 : 27.8 Mb/s
Nominal bit rate                         : 29.4 Mb/s
Width                                    : 1 920 pixels
Height                                   : 1 080 pixels
Display aspect ratio                     : 16:9
Frame rate                               : 25.000 FPS
Color space                              : YUV
Chroma subsampling                       : 4:2:2
Bit depth                                : 10 bits
Scan type                                : MBAFF
Scan type, store method                  : Interleaved fields
Scan order                               : Top Field First
Bits/(Pixel*Frame)                       : 0.535
Stream size                              : 5.69 GiB (92%)
Color range                              : Limited
Color primaries                          : BT.709
Transfer characteristics                 : BT.709
Matrix coefficients                      : BT.709

Audio #1
ID                                       : 4112 (0x1010)
Menu ID                                  : 1 (0x1)
Format                                   : MPEG Audio
Format version                           : Version 1
Format profile                           : Layer 2
Codec ID                                 : 3
Duration                                 : 29 min 20 s
Bit rate mode                            : Constant
Bit rate                                 : 384 kb/s
Channel(s)                               : 2 channels
Sampling rate                            : 48.0 kHz
Frame rate                               : 41.667 FPS (1152 SPF)
Compression mode                         : Lossy
Delay relative to video                  : 8 ms
Stream size                              : 80.6 MiB (1%)
Language                                 : English
Language, more info                      : Clean effects

Audio #2
ID                                       : 4160 (0x1040)
Menu ID                                  : 1 (0x1)
Format                                   : MPEG Audio
Format version                           : Version 1
Format profile                           : Layer 2
Codec ID                                 : 3
Duration                                 : 29 min 20 s
Bit rate mode                            : Constant
Bit rate                                 : 384 kb/s
Channel(s)                               : 2 channels
Sampling rate                            : 48.0 kHz
Frame rate                               : 41.667 FPS (1152 SPF)
Compression mode                         : Lossy
Delay relative to video                  : 8 ms
Stream size                              : 80.6 MiB (1%)
Language                                 : English
Language, more info                      : Clean effects
</pre>
</div>
<div class="bbCodeBlock bbCodeVfcHH HiddenContent">
<div class="attribution type">Hidden Content:</div>
<blockquote>You must reply before you can see the hidden data contained here.</blockquote>
</div>
<div class="messageTextEndMarker">&nbsp;</div>
</blockquote>
</article>]]></description>
                <author><![CDATA[ilya2129]]></author>
                </item>

                </channel></rss>